<mxfile host="Electron" modified="2024-03-21T10:48:21.307Z" agent="Mozilla/5.0 (Macintosh; Intel Mac OS X 10_15_7) AppleWebKit/537.36 (KHTML, like Gecko) draw.io/22.1.18 Chrome/120.0.6099.199 Electron/28.1.2 Safari/537.36" etag="gSegEpqrhqYRP7hAjutJ" version="22.1.18" type="device">
  <diagram name="Page-1" id="URvYjMWKgnh8QKA0hp6b">
    <mxGraphModel dx="1026" dy="693" grid="1" gridSize="10" guides="1" tooltips="1" connect="1" arrows="1" fold="1" page="1" pageScale="1" pageWidth="827" pageHeight="1169" math="0" shadow="0">
      <root>
        <mxCell id="0" />
        <mxCell id="1" parent="0" />
        <mxCell id="0_lUwLyO8Jluar2-cuf8-1" value="&lt;p style=&quot;margin:0px;margin-top:6px;text-align:center;&quot;&gt;&lt;b&gt;DHV UI&lt;/b&gt;&lt;/p&gt;" style="align=left;overflow=fill;html=1;dropTarget=0;whiteSpace=wrap;" vertex="1" parent="1">
          <mxGeometry x="460" y="160" width="180" height="90" as="geometry" />
        </mxCell>
        <mxCell id="0_lUwLyO8Jluar2-cuf8-2" value="" style="shape=component;jettyWidth=8;jettyHeight=4;" vertex="1" parent="0_lUwLyO8Jluar2-cuf8-1">
          <mxGeometry x="1" width="20" height="20" relative="1" as="geometry">
            <mxPoint x="-24" y="4" as="offset" />
          </mxGeometry>
        </mxCell>
        <mxCell id="0_lUwLyO8Jluar2-cuf8-4" value="&lt;p style=&quot;margin:0px;margin-top:6px;text-align:center;&quot;&gt;&lt;b&gt;DHV Back-end&lt;/b&gt;&lt;/p&gt;" style="align=left;overflow=fill;html=1;dropTarget=0;whiteSpace=wrap;" vertex="1" parent="1">
          <mxGeometry x="170" y="160" width="180" height="90" as="geometry" />
        </mxCell>
        <mxCell id="0_lUwLyO8Jluar2-cuf8-5" value="" style="shape=component;jettyWidth=8;jettyHeight=4;" vertex="1" parent="0_lUwLyO8Jluar2-cuf8-4">
          <mxGeometry x="1" width="20" height="20" relative="1" as="geometry">
            <mxPoint x="-24" y="4" as="offset" />
          </mxGeometry>
        </mxCell>
        <mxCell id="0_lUwLyO8Jluar2-cuf8-8" value="" style="ellipse;whiteSpace=wrap;html=1;align=center;aspect=fixed;fillColor=none;strokeColor=none;resizable=0;perimeter=centerPerimeter;rotatable=0;allowArrows=0;points=[];outlineConnect=1;" vertex="1" parent="1">
          <mxGeometry x="350" y="150" width="10" height="10" as="geometry" />
        </mxCell>
        <mxCell id="0_lUwLyO8Jluar2-cuf8-14" value="" style="rounded=0;orthogonalLoop=1;jettySize=auto;html=1;endArrow=halfCircle;endFill=0;endSize=6;strokeWidth=1;sketch=0;exitX=0;exitY=0.5;exitDx=0;exitDy=0;" edge="1" target="0_lUwLyO8Jluar2-cuf8-16" parent="1" source="0_lUwLyO8Jluar2-cuf8-1">
          <mxGeometry relative="1" as="geometry">
            <mxPoint x="130" y="345" as="sourcePoint" />
          </mxGeometry>
        </mxCell>
        <mxCell id="0_lUwLyO8Jluar2-cuf8-15" value="" style="rounded=0;orthogonalLoop=1;jettySize=auto;html=1;endArrow=oval;endFill=0;sketch=0;sourcePerimeterSpacing=0;targetPerimeterSpacing=0;endSize=10;exitX=1;exitY=0.5;exitDx=0;exitDy=0;" edge="1" target="0_lUwLyO8Jluar2-cuf8-16" parent="1" source="0_lUwLyO8Jluar2-cuf8-4">
          <mxGeometry relative="1" as="geometry">
            <mxPoint x="90" y="345" as="sourcePoint" />
          </mxGeometry>
        </mxCell>
        <mxCell id="0_lUwLyO8Jluar2-cuf8-16" value="" style="ellipse;whiteSpace=wrap;html=1;align=center;aspect=fixed;fillColor=none;strokeColor=none;resizable=0;perimeter=centerPerimeter;rotatable=0;allowArrows=0;points=[];outlineConnect=1;" vertex="1" parent="1">
          <mxGeometry x="403.5" y="200" width="10" height="10" as="geometry" />
        </mxCell>
        <mxCell id="0_lUwLyO8Jluar2-cuf8-17" value="DHV Rest API" style="text;html=1;align=center;verticalAlign=middle;resizable=0;points=[];autosize=1;strokeColor=none;fillColor=none;" vertex="1" parent="1">
          <mxGeometry x="350" y="170" width="100" height="30" as="geometry" />
        </mxCell>
        <mxCell id="0_lUwLyO8Jluar2-cuf8-18" value="&lt;p style=&quot;margin:0px;margin-top:6px;text-align:center;&quot;&gt;&lt;b&gt;DHV DB&lt;/b&gt;&lt;/p&gt;" style="align=left;overflow=fill;html=1;dropTarget=0;whiteSpace=wrap;" vertex="1" parent="1">
          <mxGeometry x="170" y="310" width="180" height="90" as="geometry" />
        </mxCell>
        <mxCell id="0_lUwLyO8Jluar2-cuf8-19" value="" style="shape=component;jettyWidth=8;jettyHeight=4;" vertex="1" parent="0_lUwLyO8Jluar2-cuf8-18">
          <mxGeometry x="1" width="20" height="20" relative="1" as="geometry">
            <mxPoint x="-24" y="4" as="offset" />
          </mxGeometry>
        </mxCell>
        <mxCell id="0_lUwLyO8Jluar2-cuf8-20" value="" style="rounded=0;orthogonalLoop=1;jettySize=auto;html=1;endArrow=halfCircle;endFill=0;endSize=6;strokeWidth=1;sketch=0;exitX=0.5;exitY=1;exitDx=0;exitDy=0;" edge="1" parent="1" source="0_lUwLyO8Jluar2-cuf8-4">
          <mxGeometry relative="1" as="geometry">
            <mxPoint x="430" y="355" as="sourcePoint" />
            <mxPoint x="260" y="290" as="targetPoint" />
          </mxGeometry>
        </mxCell>
        <mxCell id="0_lUwLyO8Jluar2-cuf8-21" value="" style="rounded=0;orthogonalLoop=1;jettySize=auto;html=1;endArrow=oval;endFill=0;sketch=0;sourcePerimeterSpacing=0;targetPerimeterSpacing=0;endSize=10;exitX=0.5;exitY=0;exitDx=0;exitDy=0;" edge="1" parent="1" source="0_lUwLyO8Jluar2-cuf8-18">
          <mxGeometry relative="1" as="geometry">
            <mxPoint x="390" y="355" as="sourcePoint" />
            <mxPoint x="260" y="290" as="targetPoint" />
          </mxGeometry>
        </mxCell>
        <mxCell id="0_lUwLyO8Jluar2-cuf8-22" value="" style="ellipse;whiteSpace=wrap;html=1;align=center;aspect=fixed;fillColor=none;strokeColor=none;resizable=0;perimeter=centerPerimeter;rotatable=0;allowArrows=0;points=[];outlineConnect=1;" vertex="1" parent="1">
          <mxGeometry x="405" y="350" width="10" height="10" as="geometry" />
        </mxCell>
        <mxCell id="0_lUwLyO8Jluar2-cuf8-23" value="JDBC" style="text;html=1;align=center;verticalAlign=middle;resizable=0;points=[];autosize=1;strokeColor=none;fillColor=none;" vertex="1" parent="1">
          <mxGeometry x="265" y="268" width="50" height="30" as="geometry" />
        </mxCell>
      </root>
    </mxGraphModel>
  </diagram>
</mxfile>
